Coordinates
version=1
nRows=26
nColumns=22
inDegrees=yes

Units are S.I. units (second, meters, Newtons, ...)
If the header above contains a line with 'inDegrees', this indicates whether rotational values are in degrees (yes) or radians (no).

endheader
time	pelvis_tilt	pelvis_list	pelvis_rotation	pelvis_tx	pelvis_ty	pelvis_tz	hip_flexion_r	hip_adduction_r	hip_rotation_r	knee_angle_r	ankle_angle_r	subtalar_angle_r	hip_flexion_l	hip_adduction_l	hip_rotation_l	knee_angle_l	ankle_angle_l	subtalar_angle_l	lumbar_extension	lumbar_bending	lumbar_rotation
      2.19000000	    -12.45394774	      8.63662163	    -37.78522807	     -0.70629859	      0.84204768	     -0.03717972	      0.56763335	     -3.73589598	      6.46845265	    -24.18131681	     13.32546355	      6.88125435	     42.54393941	     -9.19294562	     -8.17647079	    -69.63552767	     13.30893701	      5.08403952	     -7.74632409	     -0.55617972	     21.97826343
      2.20000000	    -12.50743784	      8.82918359	    -38.16581630	     -0.68706128	      0.84894788	     -0.02672361	     -1.01179481	     -4.29165835	      7.20002782	    -22.43427747	      8.42044607	      8.07464506	     42.81489894	     -9.16385033	     -8.65190160	    -64.96483089	     13.18965938	      4.66698610	     -7.20028866	     -0.95741603	     22.77255307
      2.21000000	    -12.63239916	      8.91872319	    -38.48307943	     -0.66770919	      0.85552521	     -0.01624674	     -2.34531526	     -4.69458869	      7.87619878	    -21.05804774	      3.56642863	      8.98915500	     42.84108484	     -9.17406408	     -8.99139556	    -59.96875440	     12.98971164	      4.45415657	     -6.65301307	     -1.20783169	     23.47544858
      2.22000000	    -12.83812819	      8.93049401	    -38.72345517	     -0.64819952	      0.86158731	     -0.00576557	     -3.42765183	     -4.95670751	      8.46329519	    -20.04875760	     -0.96212976	      9.78959065	     42.67254101	     -9.20046223	     -9.19273423	    -54.75115237	     12.58500006	      4.43371040	     -6.06578978	     -1.31967328	     24.09120220
      2.23000000	    -13.08109110	      8.83125147	    -38.88522211	     -0.62855130	      0.86707373	      0.00467806	     -4.25605545	     -5.06203108	      8.93118124	    -19.55501112	     -4.96388438	     10.46942531	     42.28105778	     -9.23678059	     -9.23564140	    -49.43175231	     11.99255916	      4.65901556	     -5.51143322	     -1.28779354	     24.54770264
      2.24000000	    -13.36545972	      8.61110103	    -38.96431325	     -0.60873133	      0.87183941	      0.01509114	     -4.83366169	     -4.99072366	      9.25397594	    -19.62072692	     -8.19967127	     10.98557321	     41.71969718	     -9.30579152	     -9.11941243	    -44.19872465	     11.20547273	      5.15899851	     -4.98407702	     -1.10063573	     24.85281262
      2.25000000	    -13.66195516	      8.24984861	    -38.95750213	     -0.58868875	      0.87580816	      0.02546615	     -5.17605612	     -4.74318549	      9.34996943	    -20.32759022	    -10.53951157	     11.24608312	     41.01696127	     -9.42289260	     -8.86633906	    -39.27156322	     10.32033565	      5.82803039	     -4.51985349	     -0.76005617	     25.02480701
      2.26000000	    -13.92084068	      7.77202621	    -38.83739681	     -0.56839630	      0.87893805	      0.03571621	     -5.29642110	     -4.37340035	      9.16052878	    -21.73525602	    -11.88030406	     11.28763421	     40.21724792	     -9.53194724	     -8.48806727	    -34.85971127	      9.38357799	      6.52107757	     -4.15191287	     -0.32330736	     25.00881284
      2.27000000	    -14.14447508	      7.22656866	    -38.64341747	     -0.54797008	      0.88112147	      0.04581763	     -5.10557688	     -3.92749328	      8.71686378	    -23.93445149	    -12.25765559	     11.12695351	     39.42570258	     -9.65162067	     -8.09512994	    -31.18974612	      8.51603183	      7.37063332	     -3.85102063	      0.16562880	     24.84754211
      2.28000000	    -14.27163444	      6.59666604	    -38.36836986	     -0.52744845	      0.88245924	      0.05573327	     -4.71090265	     -3.43870623	      8.07620763	    -26.82632788	    -11.86606435	     10.68225805	     38.63278932	     -9.75409060	     -7.70391906	    -28.41120948	      7.76843661	      8.26500428	     -3.69982666	      0.67439895	     24.52507707
      2.29000000	    -14.25990653	      5.98412100	    -37.99047763	     -0.50683066	      0.88287100	      0.06535647	     -4.09025198	     -3.05416811	      7.18336992	    -30.37964868	    -10.84054586	     10.10170964	     37.85851081	     -9.70090572	     -7.28189689	    -26.54671661	      7.28760319	      8.93829055	     -3.66656083	      1.08322028	     24.04180740
      2.30000000	    -14.09211795	      5.38766307	    -37.53449604	     -0.48621765	      0.88239193	      0.07469498	     -3.30038320	     -2.79232324	      6.17858798	    -34.47417097	     -9.44038222	      9.43373322	     37.08951268	     -9.49908024	     -6.83352896	    -25.61504339	      7.13712801	      9.39819426	     -3.78206012	      1.38077844	     23.42360137
      2.31000000	    -13.76221638	      4.81796152	    -37.01776383	     -0.46569853	      0.88102762	      0.08379628	     -2.38392387	     -2.66807213	      5.15783580	    -38.98783969	     -7.89091986	      8.77025258	     36.30274648	     -9.14924270	     -6.34498485	    -25.55505961	      7.37033678	      9.54714962	     -4.05176464	      1.54803718	     22.69374653
      2.32000000	    -13.27818439	      4.27323670	    -36.46180468	     -0.44536387	      0.87880099	      0.09272614	     -1.37302261	     -2.66242250	      4.21259631	    -43.80544123	     -6.35101063	      8.14987948	     35.47657773	     -8.67646143	     -5.81571509	    -26.27118500	      8.03293810	      9.30434767	     -4.47633740	      1.58899974	     21.88030195
      2.33000000	    -12.65619848	      3.75487164	    -35.89460577	     -0.42531580	      0.87575257	      0.10157288	     -0.28151248	     -2.74008399	      3.42809336	    -48.82603773	     -4.90804220	      7.60951707	     34.59062711	     -8.11359641	     -5.25550808	    -27.62923248	      9.16048833	      8.63512630	     -5.04599449	      1.50936583	     21.00740671
      2.34000000	    -11.92314048	      3.25757681	    -35.33678817	     -0.40565016	      0.87195841	      0.11040035	      0.89800204	     -2.85430391	      2.84001761	    -53.96706272	     -3.58055470	      7.13992710	     33.63828678	     -7.50575827	     -4.69510668	    -29.48598177	     10.75510537	      7.59380570	     -5.74706943	      1.32820757	     20.10887871
      2.35000000	    -11.10393705	      2.79259953	    -34.80089788	     -0.38642264	      0.86751085	      0.11925483	      2.18726837	     -2.98632807	      2.43561701	    -59.15215672	     -2.36509064	      6.73401389	     32.63494797	     -6.88516019	     -4.20650689	    -31.71601224	     12.77540208	      6.32532591	     -6.55192008	      1.05129553	     19.18192015
      2.36000000	    -10.23582797	      2.39370134	    -34.29874190	     -0.36767363	      0.86253283	      0.12814516	      3.64485786	     -3.13861856	      2.19534038	    -64.31834617	     -1.23592756	      6.40150658	     31.59573278	     -6.26052253	     -3.82106509	    -34.14827559	     15.11759780	      5.04519899	     -7.40784122	      0.67343973	     18.23754349
      2.37000000	     -9.35625839	      2.06577582	    -33.82962540	     -0.34940428	      0.85722529	      0.13707751	      5.29711620	     -3.29566189	      2.07736109	    -69.37562219	     -0.13175683	      6.11394874	     30.51949622	     -5.65669830	     -3.55264668	    -36.61886573	     17.63656092	      3.86826534	     -8.27683530	      0.22027685	     17.27090261
      2.38000000	     -8.51866034	      1.83601368	    -33.39298833	     -0.33157985	      0.85178509	      0.14603132	      7.20806125	     -3.47287901	      2.02675100	    -74.24427358	      0.95113117	      5.86016772	     29.41473675	     -5.07316835	     -3.37509395	    -38.95784392	     20.20446572	      2.92028069	     -9.08728868	     -0.29462068	     16.31183245
      2.39000000	     -7.78230502	      1.73712576	    -32.99174991	     -0.31414652	      0.84640559	      0.15501483	      9.44271056	     -3.67665878	      2.02378126	    -78.83830692	      2.04120753	      5.66460364	     28.29817781	     -4.51391526	     -3.30032980	    -41.01863800	     22.67745124	      2.38008762	     -9.75274972	     -0.85769317	     15.32523101
      2.40000000	     -7.20440637	      1.70747355	    -32.61474890	     -0.29698876	      0.84136344	      0.16403762	     11.99366749	     -3.83048543	      2.01137832	    -83.03623310	      3.00200691	      5.37945101	     27.13907592	     -4.02901394	     -3.23745549	    -42.68528414	     25.05750201	      1.85008405	    -10.24083169	     -1.37144510	     14.35830467
      2.41000000	     -6.79992388	      1.73366684	    -32.25370879	     -0.27997825	      0.83684975	      0.17307623	     14.83055666	     -3.92992602	      1.96701244	    -86.74654731	      3.94362825	      5.11846554	     25.92906113	     -3.63279425	     -3.20759446	    -43.91480919	     27.22408420	      1.59941919	    -10.52738818	     -1.79928847	     13.39669432
      2.42000000	     -6.56126655	      1.77783368	    -31.91627350	     -0.26295306	      0.83308783	      0.18216313	     17.87897504	     -3.95418775	      1.87567886	    -89.86913851	      4.83861244	      4.93737746	     24.60894005	     -3.33381871	     -3.17839634	    -44.65336652	     29.13887776	      1.54648805	    -10.61634588	     -2.10193537	     12.41878441
      2.43000000	     -6.48256769	      1.77420022	    -31.57893955	     -0.24576514	      0.83024930	      0.19129536	     21.04100274	     -3.86560963	      1.67544040	    -92.31814887	      5.61105506	      4.78080504	     23.14219008	     -3.16194159	     -3.09258920	    -44.90566328	     30.78411063	      1.55062567	    -10.53351514	     -2.21282539	     11.44494155
      2.44000000	     -6.49485754	      1.69032607	    -31.22927233	     -0.22827471	      0.82849558	      0.20048346	     24.16541058	     -3.70065823	      1.33343793	    -94.03256770	      6.30274577	      4.68695821	     21.45995239	     -3.09640980	     -2.93498812	    -44.69609536	     32.10527963	      1.61519758	    -10.35203455	     -2.13360548	     10.45060211
